<svg width="609" height="596" viewBox="0 0 609 596" fill="none" xmlns="http://www.w3.org/2000/svg">
<path d="M602.716 240.311C602.387 238.584 602.04 236.864 601.675 235.15C600.857 231.306 599.958 227.47 598.988 223.671C598.508 221.749 597.991 219.827 597.467 217.913V217.905C580.503 157.145 544.7 103.335 495.21 64.2176C445.72 25.1003 385.095 2.69371 322.061 0.222543H322.034C318.216 0.0712827 314.39 -0.00286849 310.555 8.4841e-05C309.505 8.4841e-05 308.455 0.00898298 307.414 0.026803C243.105 0.734151 180.75 22.2263 129.662 61.2934C78.5745 100.36 41.4957 154.906 23.9636 216.783C23.4118 218.723 22.8868 220.669 22.3886 222.621C21.3919 226.456 20.4843 230.309 19.6387 234.189V234.198C19.2651 235.933 18.9092 237.659 18.5621 239.394C14.7859 258.583 12.8905 278.095 12.9028 297.652C12.9028 305.118 13.1787 312.593 13.7305 319.925C13.8104 320.975 13.8904 322.025 13.9795 323.066C14.1933 325.691 14.46 328.423 14.7716 331.199C22.3409 397.778 52.1485 459.856 99.373 507.393C146.598 554.931 208.477 585.148 275.004 593.157C341.531 601.166 408.815 586.499 465.972 551.527C523.13 516.556 566.819 463.326 589.974 400.447C592.029 394.867 593.91 389.232 595.616 383.54C599.804 369.662 602.957 355.492 605.048 341.148C605.537 337.837 605.967 334.521 606.338 331.199C606.65 328.423 606.916 325.691 607.13 323.075C607.842 314.737 608.207 306.186 608.207 297.652C608.216 278.407 606.378 259.205 602.716 240.311V240.311Z" fill="white"/>
<path d="M380.309 56.5099C380.206 56.5103 380.104 56.4903 380.009 56.4512C379.914 56.4121 379.827 56.3546 379.754 56.2819C379.681 56.2093 379.624 56.123 379.584 56.0279C379.545 55.9329 379.524 55.831 379.524 55.7281C379.524 55.6251 379.545 55.5232 379.584 55.4282C379.624 55.3331 379.681 55.2468 379.754 55.1742C379.827 55.1015 379.914 55.044 380.009 55.0049C380.104 54.9658 380.206 54.9458 380.309 54.9462H432.065C433.368 49.5744 436.432 44.7938 440.77 41.3674C445.107 37.9409 450.467 36.066 455.995 36.0418C457.962 29.6766 461.736 24.0199 466.858 19.7588C471.98 15.4977 478.228 12.8157 484.845 12.0385C491.462 11.2614 498.163 12.4226 504.132 15.3811C510.102 18.3396 515.084 22.9681 518.473 28.7041C519.242 28.6442 519.996 28.614 520.722 28.614C528.082 28.634 535.163 31.4326 540.548 36.4498C545.934 41.467 549.226 48.3328 549.766 55.6733C549.773 55.7757 549.76 55.8786 549.727 55.9759C549.695 56.0733 549.643 56.1634 549.576 56.2409C549.509 56.3184 549.427 56.3819 549.335 56.4277C549.243 56.4736 549.143 56.5008 549.04 56.508C549.022 56.5094 549.003 56.5099 548.985 56.5099C548.787 56.5097 548.597 56.4346 548.452 56.2997C548.308 56.1648 548.22 55.9801 548.206 55.7828L380.309 56.5099Z" fill="#E6E6E6"/>
<path d="M539.682 66.535H411.455C411.248 66.5343 411.05 66.4516 410.904 66.305C410.758 66.1585 410.676 65.96 410.676 65.7531C410.676 65.5462 410.758 65.3478 410.904 65.2012C411.05 65.0547 411.248 64.972 411.455 64.9713H539.682C539.889 64.972 540.087 65.0547 540.233 65.2012C540.379 65.3478 540.461 65.5462 540.461 65.7531C540.461 65.96 540.379 66.1585 540.233 66.305C540.087 66.4516 539.889 66.5343 539.682 66.535V66.535Z" fill="#E6E6E6"/>
<path d="M102.672 322.15H67.0809V404.656H102.672V322.15Z" fill="#3F3D56"/>
<path d="M554.029 322.15H518.438V404.656H554.029V322.15Z" fill="#3F3D56"/>
<path d="M588.719 399.984C547.066 513.207 438.238 593.969 310.555 593.969C182.871 593.969 74.0437 513.207 32.3901 399.984H588.719Z" fill="#3578E5"/>
<path d="M102.332 252.27C158.848 252.27 204.664 206.455 204.664 149.938C204.664 93.4221 158.848 47.6066 102.332 47.6066C45.8155 47.6066 0 93.4221 0 149.938C0 206.455 45.8155 252.27 102.332 252.27Z" fill="#E4E4E4"/>
<path d="M602.716 240.311C602.387 238.584 602.04 236.864 601.675 235.15C600.857 231.306 599.958 227.47 598.988 223.671C598.508 221.749 597.991 219.827 597.467 217.913V217.905C580.503 157.145 544.7 103.335 495.21 64.2176C445.72 25.1003 385.095 2.69371 322.061 0.222543H322.034C318.216 0.0712827 314.39 -0.00286849 310.555 8.4841e-05C309.505 8.4841e-05 308.455 0.00898298 307.414 0.026803C243.105 0.734151 180.75 22.2263 129.662 61.2934C78.5745 100.36 41.4957 154.906 23.9636 216.783C23.4118 218.723 22.8868 220.669 22.3886 222.621C21.3919 226.456 20.4843 230.309 19.6387 234.189V234.198C19.2651 235.933 18.9092 237.659 18.5621 239.394C14.7859 258.583 12.8905 278.095 12.9028 297.652C12.9028 305.118 13.1787 312.593 13.7305 319.925C13.8104 320.975 13.8904 322.025 13.9795 323.066C14.1933 325.691 14.46 328.423 14.7716 331.199C22.3409 397.778 52.1485 459.856 99.373 507.393C146.598 554.931 208.477 585.148 275.004 593.157C341.531 601.166 408.815 586.499 465.972 551.527C523.13 516.556 566.819 463.326 589.974 400.447C592.029 394.867 593.91 389.232 595.616 383.54C599.804 369.662 602.957 355.492 605.048 341.148C605.537 337.837 605.967 334.521 606.338 331.199C606.65 328.423 606.916 325.691 607.13 323.075C607.842 314.737 608.207 306.186 608.207 297.652C608.216 278.407 606.378 259.205 602.716 240.311V240.311ZM604.469 322.853C604.265 325.442 603.998 328.156 603.686 330.897C603.313 334.198 602.889 337.49 602.414 340.774C600.328 354.99 597.202 369.034 593.062 382.792C591.362 388.425 589.496 394.001 587.464 399.521C544.975 515.032 433.691 592.635 310.555 592.635C187.419 592.635 76.1349 515.032 33.645 399.521C25.4959 377.383 20.0492 354.341 17.4232 330.897C17.1117 328.156 16.8449 325.442 16.6311 322.844C16.5421 321.811 16.4621 320.779 16.3821 319.738C15.8481 312.468 15.5722 305.047 15.5722 297.652C15.5596 277.084 17.701 256.571 21.9615 236.449C22.3351 234.66 22.7353 232.881 23.1359 231.101V231.092C24.0792 227.07 25.0966 223.078 26.1882 219.115C26.3394 218.563 26.4906 218.011 26.651 217.469C26.793 216.944 26.9442 216.419 27.1046 215.894C27.3713 214.933 27.6564 213.98 27.941 213.037C64.113 92.437 175.539 4.05788 307.432 2.68755C308.473 2.67864 309.514 2.66973 310.555 2.66973C314.364 2.66973 318.16 2.74092 321.945 2.88329C450.634 7.79523 558.473 95.5514 593.524 214.221C594.112 216.214 594.681 218.219 595.233 220.236C596.301 224.151 597.288 228.111 598.196 232.089C598.597 233.851 598.979 235.621 599.344 237.401C603.475 257.218 605.551 277.409 605.537 297.652C605.537 306.106 605.181 314.586 604.469 322.853Z" fill="#3F3D56"/>
<path d="M98.6274 274.426H71.1254V326.195H98.6274V274.426Z" fill="#3F3D56"/>
<path d="M81.6409 162.8H75.1698V279.279H81.6409V162.8Z" fill="#3F3D56"/>
<path d="M94.583 162.8H88.1119V279.279H94.583V162.8Z" fill="#3F3D56"/>
<path d="M92.9652 167.654H78.4053V175.742H92.9652V167.654Z" fill="#3F3D56"/>
<path d="M92.9652 200.009H78.4053V208.098H92.9652V200.009Z" fill="#3F3D56"/>
<path d="M92.9652 235.6H78.4053V243.689H92.9652V235.6Z" fill="#3F3D56"/>
<path d="M80.023 157.947H76.7875V166.036H80.023V157.947Z" fill="#3F3D56"/>
<path d="M92.9651 157.947H89.7296V166.036H92.9651V157.947Z" fill="#3F3D56"/>
<path d="M549.984 274.426H522.482V326.195H549.984V274.426Z" fill="#3F3D56"/>
<path d="M532.998 162.8H526.527V279.279H532.998V162.8Z" fill="#3F3D56"/>
<path d="M545.94 162.8H539.469V279.279H545.94V162.8Z" fill="#3F3D56"/>
<path d="M544.322 167.654H529.762V175.742H544.322V167.654Z" fill="#3F3D56"/>
<path d="M544.322 200.009H529.762V208.098H544.322V200.009Z" fill="#3F3D56"/>
<path d="M544.322 235.6H529.762V243.689H544.322V235.6Z" fill="#3F3D56"/>
<path d="M531.38 157.947H528.144V166.036H531.38V157.947Z" fill="#3F3D56"/>
<path d="M544.322 157.947H541.086V166.036H544.322V157.947Z" fill="#3F3D56"/>
<path d="M605.804 322.959C605.582 325.673 605.318 328.369 605.012 331.048H16.0971C15.7947 328.369 15.5308 325.673 15.3054 322.959H605.804Z" fill="#3F3D56"/>
<path d="M314.989 310.374C237.422 310.374 157.421 259.996 77.1466 160.581L79.664 158.548C160.407 258.544 240.676 308.566 318.198 307.109C393.548 305.732 468.647 255.765 541.409 158.595L543.999 160.535C470.608 258.545 394.657 308.948 318.257 310.345C317.168 310.365 316.079 310.374 314.989 310.374Z" fill="#3F3D56"/>
<path d="M314.743 299.501C241.476 299.501 165.916 252.785 90.0978 160.592L92.5971 158.537C168.845 251.251 244.602 297.554 317.842 296.237C388.943 294.932 459.811 248.619 528.476 158.584L531.048 160.546C461.754 251.406 390.041 298.148 317.901 299.472C316.85 299.491 315.795 299.501 314.743 299.501Z" fill="#3F3D56"/>
<path d="M602.717 240.311C601.595 239.35 600.465 238.38 599.344 237.401C575.131 216.321 550.857 190.714 526.52 160.581L529.038 158.552C552.147 187.178 575.2 211.69 598.196 232.089C599.353 233.121 600.513 234.141 601.676 235.15C602.04 236.867 602.387 238.587 602.717 240.311Z" fill="#3F3D56"/>
<path d="M598.988 223.671C597.733 222.55 596.482 221.405 595.233 220.236C575.304 201.65 556.672 181.721 539.467 160.59L541.967 158.534C557.967 178.16 575.187 196.759 593.524 214.221C594.841 215.475 596.15 216.703 597.467 217.905V217.914C597.991 219.827 598.508 221.749 598.988 223.671Z" fill="#3F3D56"/>
<path d="M114.987 185.09H111.752V325.386H114.987V185.09Z" fill="#3F3D56"/>
<path d="M145.088 215.89H141.852V325.386H145.088V215.89Z" fill="#3F3D56"/>
<path d="M186.088 250.131H182.853V326.195H186.088V250.131Z" fill="#3F3D56"/>
<path d="M225.338 274.426H222.103V325.386H225.338V274.426Z" fill="#3F3D56"/>
<path d="M257.907 288.163H254.672V327.004H257.907V288.163Z" fill="#3F3D56"/>
<path d="M563.467 185.09H560.232V325.386H563.467V185.09Z" fill="#3F3D56"/>
<path d="M593.568 215.89H590.333V325.386H593.568V215.89Z" fill="#3F3D56"/>
<path d="M93.7001 160.581C82.4529 174.507 71.2143 187.475 59.9844 199.485C58.8986 200.633 57.8219 201.775 56.7544 202.911C47.7847 212.334 38.8298 221.144 29.8897 229.339C28.8043 230.336 27.7248 231.317 26.651 232.284C25.0846 233.69 23.5274 235.078 21.9615 236.449C21.5965 236.769 21.2407 237.09 20.8757 237.401C20.1105 238.068 19.3363 238.736 18.562 239.394C18.9092 237.659 19.265 235.933 19.6387 234.198V234.189C20.4399 233.503 21.2315 232.8 22.0236 232.089C22.3973 231.759 22.7623 231.43 23.1359 231.101V231.092C24.3104 230.051 25.482 228.995 26.651 227.924C27.7363 226.945 28.8159 225.952 29.8897 224.943C38.8329 216.659 47.7878 207.74 56.7544 198.186C57.8311 197.038 58.9077 195.89 59.9844 194.724C70.3774 183.503 80.7767 171.446 91.1823 158.552L93.7001 160.581Z" fill="#3F3D56"/>
<path d="M80.7531 160.59C73.7143 169.15 66.6816 177.316 59.655 185.087C58.6852 186.155 57.7241 187.214 56.7543 188.264C47.7043 198.132 38.6605 207.342 29.6228 215.894C28.6261 216.837 27.6355 217.768 26.6509 218.688C26.4997 218.839 26.3394 218.981 26.1882 219.115C25.7876 219.497 25.3874 219.862 24.9868 220.236C24.1235 221.046 23.2606 221.838 22.3885 222.621C22.8869 220.672 23.4119 218.726 23.9635 216.783C24.8799 215.947 25.7904 215.093 26.6952 214.221C27.1136 213.829 27.5229 213.438 27.9409 213.037C37.2664 204.183 46.6009 194.62 55.9444 184.349C63.3747 176.18 70.8107 167.575 78.2526 158.534L80.7531 160.59Z" fill="#3F3D56"/>
<path d="M59.9879 185.09H56.7523V325.386H59.9879V185.09Z" fill="#3F3D56"/>
<path d="M29.887 215.89H26.6515V325.386H29.887V215.89Z" fill="#3F3D56"/>
<path d="M514.211 181.854H510.976V325.386H514.211V181.854Z" fill="#3F3D56"/>
<path d="M484.11 215.89H480.875V325.386H484.11V215.89Z" fill="#3F3D56"/>
<path d="M443.11 250.131H439.875V326.195H443.11V250.131Z" fill="#3F3D56"/>
<path d="M403.86 274.426H400.624V325.386H403.86V274.426Z" fill="#3F3D56"/>
<path d="M371.291 288.163H368.055V327.004H371.291V288.163Z" fill="#3F3D56"/>
<path d="M308.567 297.711H305.331V327.004H308.567V297.711Z" fill="#3F3D56"/>
<path d="M287.949 478.638H213.154C211.999 478.638 210.892 478.179 210.076 477.363C209.26 476.547 208.801 475.44 208.801 474.286C208.801 473.131 209.26 472.024 210.076 471.208C210.892 470.392 211.999 469.934 213.154 469.934H287.949C289.103 469.934 290.21 470.392 291.026 471.208C291.842 472.024 292.301 473.131 292.301 474.286C292.301 475.44 291.842 476.547 291.026 477.363C290.21 478.179 289.103 478.638 287.949 478.638Z" fill="white"/>
<path d="M407.956 451.845H333.161C332.007 451.845 330.9 451.387 330.084 450.571C329.267 449.755 328.809 448.648 328.809 447.493C328.809 446.339 329.267 445.232 330.084 444.416C330.9 443.6 332.007 443.141 333.161 443.141H407.956C409.11 443.141 410.217 443.6 411.033 444.416C411.85 445.232 412.308 446.339 412.308 447.493C412.308 448.648 411.85 449.755 411.033 450.571C410.217 451.387 409.11 451.845 407.956 451.845Z" fill="white"/>
<path d="M359.346 516.108H284.551C283.397 516.108 282.29 515.65 281.474 514.834C280.657 514.017 280.199 512.91 280.199 511.756C280.199 510.602 280.657 509.495 281.474 508.679C282.29 507.863 283.397 507.404 284.551 507.404H359.346C360.501 507.404 361.608 507.863 362.424 508.679C363.24 509.495 363.699 510.602 363.699 511.756C363.699 512.91 363.24 514.017 362.424 514.834C361.608 515.65 360.501 516.108 359.346 516.108Z" fill="white"/>
<path d="M236.309 131.51C236.206 131.51 236.104 131.49 236.009 131.451C235.914 131.412 235.827 131.355 235.754 131.282C235.681 131.209 235.624 131.123 235.584 131.028C235.545 130.933 235.524 130.831 235.524 130.728C235.524 130.625 235.545 130.523 235.584 130.428C235.624 130.333 235.681 130.247 235.754 130.174C235.827 130.102 235.914 130.044 236.009 130.005C236.104 129.966 236.206 129.946 236.309 129.946H288.065C289.368 124.574 292.432 119.794 296.77 116.367C301.107 112.941 306.467 111.066 311.995 111.042C313.962 104.677 317.736 99.0199 322.858 94.7588C327.98 90.4977 334.228 87.8157 340.845 87.0386C347.462 86.2615 354.163 87.4227 360.132 90.3812C366.102 93.3397 371.084 97.9681 374.473 103.704C375.242 103.644 375.996 103.614 376.722 103.614C384.082 103.634 391.163 106.433 396.548 111.45C401.934 116.467 405.226 123.333 405.766 130.673C405.773 130.776 405.76 130.879 405.727 130.976C405.695 131.073 405.643 131.163 405.576 131.241C405.509 131.318 405.427 131.382 405.335 131.428C405.243 131.474 405.143 131.501 405.04 131.508C405.022 131.509 405.003 131.51 404.985 131.51C404.787 131.51 404.597 131.435 404.452 131.3C404.308 131.165 404.22 130.98 404.206 130.783L236.309 131.51Z" fill="#E6E6E6"/>
<path d="M298.73 152.872H255.727C255.52 152.871 255.322 152.789 255.176 152.642C255.03 152.496 254.948 152.297 254.948 152.09C254.948 151.883 255.03 151.685 255.176 151.538C255.322 151.392 255.52 151.309 255.727 151.308H298.73C298.833 151.308 298.935 151.328 299.03 151.367C299.125 151.406 299.212 151.464 299.284 151.536C299.357 151.609 299.415 151.695 299.455 151.79C299.494 151.885 299.514 151.987 299.514 152.09C299.514 152.193 299.494 152.295 299.455 152.39C299.415 152.485 299.357 152.572 299.284 152.644C299.212 152.717 299.125 152.774 299.03 152.813C298.935 152.853 298.833 152.873 298.73 152.872Z" fill="#E6E6E6"/>
<path d="M323.109 45.5949L329.611 40.3942C324.56 39.8369 322.484 42.5919 321.635 44.7724C317.688 43.1337 313.392 45.2813 313.392 45.2813L326.402 50.0044C325.746 48.2514 324.603 46.7217 323.109 45.5949Z" fill="#3F3D56"/>
<path d="M346.245 180.851L352.747 175.65C347.695 175.093 345.62 177.848 344.771 180.028C340.824 178.39 336.528 180.537 336.528 180.537L349.538 185.26C348.882 183.507 347.739 181.978 346.245 180.851V180.851Z" fill="#3F3D56"/>
<path d="M498.407 130.13L504.91 124.929C499.858 124.372 497.783 127.127 496.933 129.307C492.987 127.669 488.691 129.816 488.691 129.816L501.701 134.539C501.045 132.786 499.902 131.257 498.407 130.13V130.13Z" fill="#3F3D56"/>
<path d="M114.79 389.306H51.6108V399.984H114.79V389.306Z" fill="#3F3D56"/>
<path d="M567.719 389.306H504.54V399.984H567.719V389.306Z" fill="#3F3D56"/>
<path d="M606.276 315.146H14.7302V317.815H606.276V315.146Z" fill="#3F3D56"/>
</svg>
