<svg width="725" height="527" viewBox="0 0 725 527" fill="none" xmlns="http://www.w3.org/2000/svg">
<g clip-path="url(#clip0)">
<path d="M682.128 3.4881H129.195C129.18 2.55801 128.8 1.67125 128.137 1.01883C127.474 0.366407 126.581 0.000525138 125.65 0H103.873C102.943 0.000396269 102.05 0.366227 101.387 1.01868C100.724 1.67113 100.343 2.55797 100.328 3.4881H94.9949C94.9793 2.55801 94.5991 1.67125 93.936 1.01883C93.2729 0.366407 92.3801 0.000525138 91.4499 0H69.6724C68.7422 0.000525138 67.8494 0.366407 67.1863 1.01883C66.5233 1.67125 66.143 2.55801 66.1274 3.4881H46.7227C35.4616 3.50074 24.6654 7.97976 16.7025 15.9425C8.73961 23.9052 4.26042 34.7014 4.24759 45.9625V46.3807C4.18101 46.3769 4.11719 46.3607 4.04921 46.3607H3.55122C3.08487 46.3607 2.62307 46.4525 2.19221 46.631C1.76136 46.8095 1.36986 47.071 1.0401 47.4008C0.710337 47.7306 0.448755 48.122 0.270294 48.5529C0.0918338 48.9838 -1.31314e-05 49.4456 1.40815e-09 49.9119V91.4503C-1.31314e-05 91.9166 0.0918338 92.3784 0.270294 92.8093C0.448755 93.2401 0.710337 93.6316 1.0401 93.9614C1.36986 94.2912 1.76136 94.5527 2.19221 94.7312C2.62307 94.9097 3.08487 95.0015 3.55122 95.0015H4.04921C4.11721 95.0015 4.18101 94.9853 4.24759 94.9815V484.526C4.26042 495.787 8.73961 506.583 16.7025 514.546C24.6654 522.508 35.4616 526.987 46.7227 527H682.128C693.389 526.987 704.186 522.508 712.148 514.545C720.111 506.583 724.59 495.787 724.603 484.526V45.9626C724.59 34.7016 720.111 23.9054 712.148 15.9427C704.186 7.97997 693.389 3.50089 682.128 3.4881ZM711.818 484.526C711.809 492.397 708.678 499.944 703.112 505.51C697.546 511.076 690 514.207 682.128 514.216H46.7227C38.8511 514.207 31.3043 511.076 25.7382 505.51C20.172 499.944 17.041 492.397 17.032 484.526V45.9626C17.041 38.0909 20.172 30.5442 25.7382 24.9782C31.3043 19.4122 38.8511 16.2813 46.7227 16.2725H682.128C690 16.2815 697.546 19.4124 703.112 24.9784C708.678 30.5445 711.809 38.091 711.818 45.9625V484.526Z" fill="#CCCCCC"/>
<path d="M682.128 521.318H46.7225C36.9679 521.307 27.6159 517.427 20.7183 510.53C13.8207 503.632 9.94083 494.28 9.92981 484.526V45.9626C9.94081 36.208 13.8207 26.856 20.7183 19.9585C27.6159 13.0609 36.9679 9.18101 46.7225 9.17004H682.128C691.883 9.18098 701.235 13.0608 708.132 19.9584C715.03 26.8559 718.91 36.2079 718.921 45.9625V484.526C718.91 494.28 715.03 503.632 708.132 510.53C701.235 517.427 691.883 521.307 682.128 521.318V521.318Z" fill="#E6E6E6"/>
<path d="M682.323 491.678H46.5282C44.3812 491.675 42.3228 490.821 40.8047 489.303C39.2866 487.785 38.4327 485.726 38.4303 483.579V46.9079C38.4327 44.761 39.2867 42.7027 40.8048 41.1846C42.3229 39.6665 44.3813 38.8125 46.5282 38.8102H682.323C684.47 38.8125 686.528 39.6664 688.046 41.1845C689.564 42.7026 690.418 44.7609 690.421 46.9079V483.579C690.418 485.727 689.564 487.785 688.046 489.303C686.528 490.821 684.47 491.675 682.323 491.678V491.678Z" fill="white"/>
<path d="M24.3203 267.524C25.9993 267.524 27.3604 266.163 27.3604 264.484C27.3604 262.805 25.9993 261.444 24.3203 261.444C22.6414 261.444 21.2803 262.805 21.2803 264.484C21.2803 266.163 22.6414 267.524 24.3203 267.524Z" fill="white"/>
<path d="M277.46 96.5916H142.394C131.799 96.6036 121.641 100.818 114.149 108.31C106.657 115.802 102.443 125.96 102.431 136.555V148.763C102.154 148.687 101.862 148.676 101.58 148.732C101.298 148.787 101.033 148.907 100.805 149.083C100.578 149.259 100.394 149.485 100.269 149.744C100.143 150.003 100.08 150.287 100.084 150.574V159.963C100.08 160.25 100.143 160.535 100.269 160.793C100.394 161.052 100.578 161.278 100.805 161.454C101.033 161.63 101.298 161.75 101.58 161.806C101.862 161.861 102.154 161.85 102.431 161.774V175.989C102.154 175.913 101.862 175.902 101.58 175.958C101.298 176.013 101.033 176.133 100.805 176.309C100.578 176.485 100.394 176.711 100.269 176.97C100.143 177.229 100.08 177.513 100.084 177.801V201.271C100.08 201.559 100.143 201.843 100.269 202.102C100.394 202.361 100.578 202.587 100.805 202.763C101.033 202.938 101.298 203.059 101.58 203.114C101.862 203.17 102.154 203.159 102.431 203.083V211.665C102.154 211.588 101.862 211.578 101.58 211.633C101.298 211.689 101.033 211.809 100.805 211.985C100.578 212.16 100.394 212.387 100.269 212.645C100.143 212.904 100.08 213.189 100.084 213.476V236.947C100.08 237.234 100.143 237.519 100.269 237.778C100.394 238.036 100.578 238.263 100.805 238.438C101.033 238.614 101.298 238.734 101.58 238.79C101.862 238.845 102.154 238.834 102.431 238.758V486.613C102.443 497.208 106.657 507.366 114.149 514.858C121.641 522.35 131.799 526.564 142.394 526.576H277.46C288.055 526.564 298.213 522.35 305.705 514.858C313.197 507.366 317.411 497.208 317.423 486.613V136.555C317.411 125.96 313.197 115.802 305.705 108.31C298.213 100.818 288.055 96.6036 277.46 96.5916V96.5916ZM308.974 486.613C308.964 494.968 305.641 502.978 299.733 508.886C293.825 514.794 285.815 518.117 277.46 518.127H142.394C134.039 518.117 126.029 514.794 120.121 508.886C114.213 502.978 110.89 494.968 110.88 486.613V136.555C110.89 128.2 114.213 120.19 120.121 114.282C126.029 108.374 134.039 105.051 142.394 105.041H277.46C285.815 105.051 293.825 108.374 299.733 114.282C305.641 120.19 308.964 128.2 308.974 136.555V486.613Z" fill="#CCCCCC"/>
<path d="M277.46 522.821H142.394C132.794 522.81 123.591 518.992 116.803 512.204C110.015 505.416 106.197 496.213 106.186 486.613V136.555C106.197 126.955 110.015 117.752 116.803 110.964C123.591 104.176 132.794 100.358 142.394 100.347H277.46C287.059 100.358 296.263 104.176 303.051 110.964C309.839 117.752 313.657 126.955 313.668 136.555V486.613C313.657 496.213 309.839 505.416 303.051 512.204C296.263 518.992 287.059 522.81 277.46 522.821V522.821Z" fill="#E6E6E6"/>
<path d="M280.798 517.188H139.056C132.582 517.181 126.375 514.605 121.796 510.027C117.218 505.449 114.643 499.242 114.635 492.767V130.401C114.643 123.926 117.218 117.719 121.796 113.141C126.374 108.562 132.582 105.987 139.056 105.98H157.541C158.611 105.981 159.637 106.407 160.394 107.163C161.15 107.92 161.576 108.946 161.577 110.016C161.581 113.178 162.838 116.208 165.073 118.444C167.309 120.679 170.34 121.937 173.501 121.94H244.475C247.636 121.937 250.667 120.679 252.903 118.444C255.138 116.208 256.395 113.178 256.399 110.016C256.4 108.946 256.826 107.92 257.583 107.163C258.339 106.407 259.365 105.981 260.435 105.98H280.797C287.272 105.987 293.479 108.562 298.057 113.141C302.636 117.719 305.211 123.926 305.218 130.401V492.767C305.211 499.242 302.636 505.449 298.057 510.027C293.479 514.605 287.272 517.181 280.798 517.188V517.188Z" fill="white"/>
<path d="M216.029 114.195H199.13C198.632 114.195 198.155 113.997 197.803 113.645C197.451 113.293 197.253 112.815 197.253 112.317C197.253 111.819 197.451 111.341 197.803 110.989C198.155 110.637 198.632 110.439 199.13 110.439H216.029C216.527 110.44 217.003 110.639 217.354 110.991C217.705 111.343 217.903 111.82 217.903 112.317C217.903 112.814 217.705 113.291 217.354 113.643C217.003 113.995 216.527 114.194 216.029 114.195V114.195Z" fill="white"/>
<path d="M227.765 113.725C228.283 113.725 228.703 113.305 228.703 112.786C228.703 112.268 228.283 111.848 227.765 111.848C227.246 111.848 226.826 112.268 226.826 112.786C226.826 113.305 227.246 113.725 227.765 113.725Z" fill="white"/>
<path d="M228.717 202.434L228.913 206.802C251.242 205.802 277.099 207.748 304.619 212.34V207.911C277.057 203.354 251.142 201.43 228.717 202.434Z" fill="#CCCCCC"/>
<path d="M200.951 287.985C200.778 289.657 200.637 291.339 200.527 293.03C200.297 296.358 200.182 299.711 200.182 303.091C200.199 334.558 210.373 365.18 229.189 390.401C248.005 415.623 274.46 434.098 304.619 443.079V163.077C276.923 171.31 252.291 187.572 233.838 209.806C215.385 232.04 203.94 259.246 200.951 287.985V287.985Z" fill="#3578E5"/>
<path d="M128.076 203.337C129.665 203.337 130.954 202.048 130.954 200.458C130.954 198.868 129.665 197.579 128.076 197.579C126.486 197.579 125.197 198.868 125.197 200.458C125.197 202.048 126.486 203.337 128.076 203.337Z" fill="#CCCCCC"/>
<path d="M121.94 318.818C125.081 318.818 127.627 316.272 127.627 313.131C127.627 309.99 125.081 307.444 121.94 307.444C118.799 307.444 116.253 309.99 116.253 313.131C116.253 316.272 118.799 318.818 121.94 318.818Z" fill="#CCCCCC"/>
<path d="M229.035 168.31C231.31 168.31 233.154 166.466 233.154 164.191C233.154 161.916 231.31 160.072 229.035 160.072C226.76 160.072 224.916 161.916 224.916 164.191C224.916 166.466 226.76 168.31 229.035 168.31Z" fill="#CCCCCC"/>
<path d="M135.327 396.739C137.142 396.739 138.613 395.267 138.613 393.453C138.613 391.638 137.142 390.166 135.327 390.166C133.512 390.166 132.041 391.638 132.041 393.453C132.041 395.267 133.512 396.739 135.327 396.739Z" fill="#CCCCCC"/>
<path d="M201.704 442.75C203.669 442.75 205.262 441.157 205.262 439.191C205.262 437.226 203.669 435.632 201.704 435.632C199.738 435.632 198.145 437.226 198.145 439.191C198.145 441.157 199.738 442.75 201.704 442.75Z" fill="#CCCCCC"/>
<path d="M305.157 80.869H298.134V73.846H294.366V80.869H287.34V84.639H294.366V91.662H298.134V84.639H305.157V80.869Z" fill="#CCCCCC"/>
<path opacity="0.1" d="M254.136 290.819C260.913 290.819 266.407 285.325 266.407 278.548C266.407 271.771 260.913 266.277 254.136 266.277C247.359 266.277 241.865 271.771 241.865 278.548C241.865 285.325 247.359 290.819 254.136 290.819Z" fill="black"/>
<path opacity="0.1" d="M260.271 377.277C267.049 377.277 272.543 371.783 272.543 365.005C272.543 358.228 267.049 352.734 260.271 352.734C253.494 352.734 248 358.228 248 365.005C248 371.783 253.494 377.277 260.271 377.277Z" fill="black"/>
<path d="M206.134 288.072C191.076 277.961 179.86 267.986 172.798 258.423C165.754 248.883 163.242 240.266 165.332 232.809C167.422 225.352 174.047 219.295 185.024 214.807C196.027 210.307 210.793 207.614 228.912 206.802L228.717 202.435C189.917 204.173 165.911 214.541 161.122 231.629C156.333 248.716 171.452 270.05 203.697 291.702C229.991 309.359 265.21 325.664 304.619 338.578V333.977C266.14 321.261 231.805 305.31 206.134 288.072Z" fill="#CCCCCC"/>
<path opacity="0.1" d="M206.132 291.57C204.353 290.374 202.626 289.179 200.951 287.985C200.778 289.657 200.637 291.339 200.527 293.031C201.565 293.755 202.622 294.478 203.697 295.199C229.992 312.856 265.21 329.162 304.619 342.076V337.474C266.141 324.758 231.807 308.808 206.132 291.57Z" fill="black"/>
<path d="M368.977 221.149C351.78 216.329 334.735 212.403 318.197 209.381V213.825C334.352 216.803 350.997 220.65 367.797 225.359C421.282 240.35 469.679 262.197 500.579 285.297L503.198 281.796C471.882 258.385 422.961 236.28 368.977 221.149Z" fill="#CCCCCC"/>
<path d="M497.372 303.091C497.358 281.099 492.381 259.395 482.812 239.594C473.243 219.794 459.328 202.409 442.105 188.735C424.882 175.061 404.795 165.45 383.34 160.62C361.886 155.79 339.618 155.864 318.197 160.837V445.334C350.405 452.832 384.204 449.181 414.068 434.979C443.932 420.776 468.095 396.863 482.607 367.147C483.36 365.611 484.085 364.061 484.78 362.496C493.109 343.8 497.399 323.558 497.372 303.091L497.372 303.091Z" fill="#3578E5"/>
<path d="M355.204 130.724C356.129 130.724 356.878 129.975 356.878 129.05C356.878 128.126 356.129 127.377 355.204 127.377C354.28 127.377 353.531 128.126 353.531 129.05C353.531 129.975 354.28 130.724 355.204 130.724Z" fill="#F2F2F2"/>
<path d="M468.435 142.881C470.529 142.881 472.226 141.184 472.226 139.09C472.226 136.997 470.529 135.3 468.435 135.3C466.342 135.3 464.645 136.997 464.645 139.09C464.645 141.184 466.342 142.881 468.435 142.881Z" fill="#CCCCCC"/>
<path d="M602.862 302.551C606.261 302.551 609.016 299.796 609.016 296.397C609.016 292.999 606.261 290.244 602.862 290.244C599.464 290.244 596.708 292.999 596.708 296.397C596.708 299.796 599.464 302.551 602.862 302.551Z" fill="#CCCCCC"/>
<path d="M554.742 200.751C556.201 200.751 557.383 199.569 557.383 198.111C557.383 196.653 556.201 195.47 554.742 195.47C553.284 195.47 552.102 196.653 552.102 198.111C552.102 199.569 553.284 200.751 554.742 200.751Z" fill="#CCCCCC"/>
<path d="M545.501 286.56C546.96 286.56 548.142 285.378 548.142 283.919C548.142 282.461 546.96 281.279 545.501 281.279C544.043 281.279 542.861 282.461 542.861 283.919C542.861 285.378 544.043 286.56 545.501 286.56Z" fill="#CCCCCC"/>
<path d="M473.192 460.867H468.78V456.458H466.415V460.867H462.006V463.233H466.415V467.643H468.78V463.233H473.192V460.867Z" fill="#CCCCCC"/>
<path d="M574.971 438.296H571.675V435H569.904V438.296H566.608V440.066H569.904V443.362H571.675V440.066H574.971V438.296Z" fill="#CCCCCC"/>
<path opacity="0.1" d="M353.531 201.016C360.308 201.016 365.802 195.521 365.802 188.744C365.802 181.967 360.308 176.473 353.531 176.473C346.754 176.473 341.26 181.967 341.26 188.744C341.26 195.521 346.754 201.016 353.531 201.016Z" fill="black"/>
<path opacity="0.1" d="M353.531 309.784C360.308 309.784 365.802 304.29 365.802 297.513C365.802 290.736 360.308 285.242 353.531 285.242C346.754 285.242 341.26 290.736 341.26 297.513C341.26 304.29 346.754 309.784 353.531 309.784Z" fill="black"/>
<path opacity="0.1" d="M419.35 243.965C426.127 243.965 431.621 238.471 431.621 231.694C431.621 224.917 426.127 219.423 419.35 219.423C412.573 219.423 407.079 224.917 407.079 231.694C407.079 238.471 412.573 243.965 419.35 243.965Z" fill="black"/>
<path opacity="0.1" d="M460.069 327.076C466.846 327.076 472.34 321.582 472.34 314.804C472.34 308.027 466.846 302.533 460.069 302.533C453.291 302.533 447.797 308.027 447.797 314.804C447.797 321.582 453.291 327.076 460.069 327.076Z" fill="black"/>
<path d="M530.763 309.237C525 300.395 515.726 291.162 503.198 281.796L500.579 285.298C524.926 303.499 536.267 320.897 532.514 334.287C530.425 341.744 523.799 347.801 512.823 352.289C501.819 356.788 487.053 359.481 468.934 360.293C465.084 360.466 461.134 360.552 457.083 360.552C421.631 360.551 378.883 353.987 335.178 341.737C329.447 340.131 323.787 338.45 318.197 336.696V341.275C323.403 342.892 328.67 344.45 333.998 345.947C378.085 358.304 421.245 364.924 457.105 364.923C461.21 364.923 465.225 364.836 469.13 364.661C507.929 362.922 531.935 352.554 536.725 335.467C538.946 327.541 536.94 318.716 530.763 309.237Z" fill="#CCCCCC"/>
<path opacity="0.1" d="M468.935 363.79C465.086 363.962 461.135 364.048 457.082 364.048C421.633 364.048 378.881 357.485 335.177 345.234C329.447 343.628 323.786 341.948 318.197 340.194V344.773C323.402 346.39 328.669 347.948 333.997 349.445C378.085 361.8 421.243 368.42 457.104 368.42C461.209 368.42 465.228 368.332 469.132 368.157C473.848 367.948 478.34 367.611 482.607 367.148C483.361 365.611 484.085 364.061 484.78 362.496C479.822 363.105 474.54 363.536 468.935 363.79Z" fill="black"/>
<path d="M419.301 196.5C428.138 196.5 435.301 189.337 435.301 180.5C435.301 171.663 428.138 164.5 419.301 164.5C410.465 164.5 403.301 171.663 403.301 180.5C403.301 189.337 410.465 196.5 419.301 196.5Z" fill="white"/>
<path d="M419.35 156.95C413.285 156.95 407.468 159.36 403.179 163.649C398.89 167.937 396.481 173.754 396.481 179.82C396.481 192.45 419.35 233.925 419.35 233.925C419.35 233.925 442.219 192.45 442.219 179.82C442.219 173.754 439.81 167.937 435.521 163.649C431.232 159.36 425.415 156.95 419.35 156.95ZM419.35 190.975C417.254 190.975 415.205 190.354 413.462 189.189C411.719 188.025 410.361 186.37 409.559 184.433C408.757 182.497 408.547 180.366 408.956 178.31C409.365 176.254 410.374 174.366 411.856 172.883C413.338 171.401 415.227 170.392 417.282 169.983C419.338 169.574 421.469 169.784 423.406 170.586C425.342 171.388 426.997 172.747 428.162 174.489C429.326 176.232 429.948 178.281 429.948 180.377C429.948 183.188 428.831 185.884 426.844 187.871C424.856 189.859 422.161 190.975 419.35 190.975V190.975Z" fill="#3F3D56"/>
<path d="M353.301 254.5C362.138 254.5 369.301 247.337 369.301 238.5C369.301 229.663 362.138 222.5 353.301 222.5C344.465 222.5 337.301 229.663 337.301 238.5C337.301 247.337 344.465 254.5 353.301 254.5Z" fill="white"/>
<path d="M353.35 214.95C347.285 214.95 341.468 217.36 337.179 221.649C332.89 225.937 330.481 231.754 330.481 237.82C330.481 250.45 353.35 291.925 353.35 291.925C353.35 291.925 376.219 250.45 376.219 237.82C376.219 231.754 373.81 225.937 369.521 221.649C365.232 217.36 359.415 214.95 353.35 214.95V214.95ZM353.35 248.975C351.254 248.975 349.205 248.354 347.462 247.189C345.719 246.025 344.361 244.37 343.559 242.433C342.757 240.497 342.547 238.366 342.956 236.31C343.365 234.254 344.374 232.366 345.856 230.883C347.338 229.401 349.227 228.392 351.282 227.983C353.338 227.574 355.469 227.784 357.406 228.586C359.342 229.388 360.997 230.747 362.162 232.489C363.326 234.232 363.948 236.281 363.948 238.377C363.948 241.188 362.831 243.884 360.844 245.871C358.856 247.859 356.161 248.975 353.35 248.975V248.975Z" fill="#3F3D56"/>
<path d="M353.301 151.5C362.138 151.5 369.301 144.337 369.301 135.5C369.301 126.663 362.138 119.5 353.301 119.5C344.465 119.5 337.301 126.663 337.301 135.5C337.301 144.337 344.465 151.5 353.301 151.5Z" fill="white"/>
<path d="M353.35 111.95C347.285 111.95 341.468 114.36 337.179 118.649C332.89 122.937 330.481 128.754 330.481 134.82C330.481 147.45 353.35 188.925 353.35 188.925C353.35 188.925 376.219 147.45 376.219 134.82C376.219 128.754 373.81 122.937 369.521 118.649C365.232 114.36 359.415 111.95 353.35 111.95ZM353.35 145.975C351.254 145.975 349.205 145.354 347.462 144.189C345.719 143.025 344.361 141.37 343.559 139.433C342.757 137.497 342.547 135.366 342.956 133.31C343.365 131.254 344.374 129.366 345.856 127.883C347.338 126.401 349.227 125.392 351.282 124.983C353.338 124.574 355.469 124.784 357.406 125.586C359.342 126.388 360.997 127.747 362.162 129.489C363.326 131.232 363.948 133.281 363.948 135.377C363.948 136.769 363.674 138.147 363.141 139.433C362.609 140.719 361.828 141.887 360.844 142.871C359.86 143.855 358.691 144.636 357.406 145.169C356.12 145.701 354.742 145.975 353.35 145.975V145.975Z" fill="#CCCCCC"/>
<path d="M460.301 275.5C469.138 275.5 476.301 268.337 476.301 259.5C476.301 250.663 469.138 243.5 460.301 243.5C451.465 243.5 444.301 250.663 444.301 259.5C444.301 268.337 451.465 275.5 460.301 275.5Z" fill="white"/>
<path d="M460.35 235.95C454.285 235.95 448.468 238.36 444.179 242.649C439.89 246.937 437.481 252.754 437.481 258.82C437.481 271.45 460.35 312.925 460.35 312.925C460.35 312.925 483.219 271.45 483.219 258.82C483.219 252.754 480.81 246.937 476.521 242.649C472.232 238.36 466.415 235.95 460.35 235.95V235.95ZM460.35 269.975C458.254 269.975 456.205 269.354 454.462 268.189C452.719 267.025 451.361 265.37 450.559 263.433C449.757 261.497 449.547 259.366 449.956 257.31C450.365 255.254 451.374 253.366 452.856 251.883C454.338 250.401 456.227 249.392 458.282 248.983C460.338 248.574 462.469 248.784 464.406 249.586C466.342 250.388 467.997 251.747 469.162 253.489C470.326 255.232 470.948 257.281 470.948 259.377C470.948 262.188 469.831 264.884 467.844 266.871C465.856 268.859 463.161 269.975 460.35 269.975V269.975Z" fill="#CCCCCC"/>
<path d="M254.301 239.5C263.138 239.5 270.301 232.337 270.301 223.5C270.301 214.663 263.138 207.5 254.301 207.5C245.465 207.5 238.301 214.663 238.301 223.5C238.301 232.337 245.465 239.5 254.301 239.5Z" fill="white"/>
<path d="M254.35 199.95C248.285 199.95 242.468 202.36 238.179 206.649C233.89 210.937 231.481 216.754 231.481 222.82C231.481 235.45 254.35 276.925 254.35 276.925C254.35 276.925 277.219 235.45 277.219 222.82C277.219 216.754 274.81 210.937 270.521 206.649C266.232 202.36 260.415 199.95 254.35 199.95V199.95ZM254.35 233.975C252.254 233.975 250.205 233.354 248.462 232.189C246.719 231.025 245.361 229.37 244.559 227.433C243.757 225.497 243.547 223.366 243.956 221.31C244.365 219.254 245.374 217.366 246.856 215.883C248.338 214.401 250.227 213.392 252.282 212.983C254.338 212.574 256.469 212.784 258.406 213.586C260.342 214.388 261.997 215.747 263.162 217.489C264.326 219.232 264.948 221.281 264.948 223.377C264.948 226.188 263.831 228.884 261.844 230.871C259.856 232.859 257.161 233.975 254.35 233.975V233.975Z" fill="#CCCCCC"/>
<path d="M260.301 326.5C269.138 326.5 276.301 319.337 276.301 310.5C276.301 301.663 269.138 294.5 260.301 294.5C251.465 294.5 244.301 301.663 244.301 310.5C244.301 319.337 251.465 326.5 260.301 326.5Z" fill="white"/>
<path d="M260.35 286.95C254.285 286.95 248.468 289.36 244.179 293.649C239.89 297.937 237.481 303.754 237.481 309.82C237.481 322.45 260.35 363.925 260.35 363.925C260.35 363.925 283.219 322.45 283.219 309.82C283.219 303.754 280.81 297.937 276.521 293.649C272.232 289.36 266.415 286.95 260.35 286.95ZM260.35 320.975C258.254 320.975 256.205 320.354 254.462 319.189C252.719 318.025 251.361 316.37 250.559 314.433C249.757 312.497 249.547 310.366 249.956 308.31C250.365 306.254 251.374 304.366 252.856 302.883C254.338 301.401 256.227 300.392 258.282 299.983C260.338 299.574 262.469 299.784 264.406 300.586C266.342 301.388 267.997 302.747 269.162 304.489C270.326 306.232 270.948 308.281 270.948 310.377C270.948 313.188 269.831 315.884 267.844 317.871C265.856 319.859 263.161 320.975 260.35 320.975V320.975Z" fill="#3F3D56"/>
</g>
<defs>
<clipPath id="clip0">
<rect width="724.603" height="527" fill="white"/>
</clipPath>
</defs>
</svg>
