<svg width="718" height="657" viewBox="0 0 718 657" fill="none" xmlns="http://www.w3.org/2000/svg">
<g clip-path="url(#clip0)">
<path d="M460.006 524.682L466.906 540.144C461.297 539.251 456.082 544.039 455.965 550.186C455.847 556.334 460.85 562.73 466.458 563.604C465.387 568.377 460.761 570.481 456.746 572.41C452.731 574.339 448.403 577.539 448.702 582.625C448.942 586.708 452.32 590.314 455.909 591.763C459.497 593.213 463.261 592.99 466.895 592.747C461.389 598.504 460.852 609.325 465.688 617.089C470.524 624.852 480.182 628.674 487.413 625.686C482.304 632.038 483.414 643.671 489.755 650.227C496.147 656.836 505.411 657.476 513.51 656.779C534.135 655.037 553.786 647.253 570.006 634.403C576.198 629.485 581.981 623.703 585.513 616.16C589.045 608.617 590.085 599.066 586.796 590.482C587.683 601.235 598.452 609.728 608.139 610.203C617.827 610.679 626.285 605.225 633.473 599.006C643.032 590.736 651.882 579.143 650.57 564.839C649.92 557.758 646.826 550.947 643.791 544.35L637.906 531.561C635.531 526.398 633.101 521.148 629.526 516.815C625.951 512.483 620.988 509.129 616.022 509.161C617.157 503.976 618.298 498.598 617.346 493.089C616.394 487.58 612.751 481.876 607.795 480.586C601.488 478.944 596.143 484.761 589.801 484.213C583.698 483.685 578.654 477.563 572.728 475.138C570.287 474.083 567.593 473.762 564.973 474.215C562.353 474.668 559.923 475.875 557.979 477.687C554.222 481.353 552.656 487.546 554.004 493.406C555.185 498.54 558.328 503.067 560.236 508.018C562.143 512.969 562.439 519.334 558.775 522.038C554.354 525.301 547.625 520.861 544.171 515.49C540.717 510.119 538.734 503.615 534.366 499.098C529.211 493.766 521.141 492.517 515.833 496.228C510.525 499.94 508.496 508.251 511.171 515.316C513.359 521.093 518.371 526.937 516.633 532.377C514.796 538.126 506.757 537.398 501.908 533.335C497.059 529.271 493.839 523.151 489.049 518.997C484.185 514.778 477.832 512.929 472.256 514.11C469.427 514.766 466.809 516.123 464.643 518.057C462.478 519.991 460.834 522.439 459.865 525.175" fill="#E6E6E6"/>
<path d="M571.712 481.231L557.396 487.879C555.244 488.941 552.803 489.27 550.447 488.815C548.369 488.324 546.964 487.054 546.595 485.329L543.264 469.78C542.635 466.847 545.066 463.376 549.044 461.529L556.949 457.858C560.927 456.011 565.149 456.392 566.986 458.765L576.728 471.337C577.808 472.731 577.874 474.623 576.909 476.527C575.737 478.62 573.912 480.273 571.712 481.231V481.231Z" fill="#3F3D56"/>
<path d="M127.811 193.84C141.27 157.025 162.273 123.424 189.475 95.1898C212.553 71.245 248.471 72.2399 248.471 72.2399L248.677 71.9855C257.321 61.3311 268.922 53.4654 282.022 49.3753C295.122 45.2851 309.14 45.1525 322.315 48.9942C325.74 49.9764 328.374 50.4118 329.627 49.9743C352.467 41.9849 351.394 23.952 371.1 9.42482C405.605 -16.0114 520.053 13.1253 536.191 59.9309C549.271 97.8659 607.656 116.253 629.468 145.27C632.879 149.807 636.226 154.397 639.508 159.039C641.047 161.196 642.568 163.369 644.073 165.558C659.527 187.926 673.391 211.351 685.563 235.659C693.545 251.541 700.482 267.927 706.33 284.711C729.078 351.175 721.299 400.695 658.575 388.461C651.15 387.009 643.903 385.71 636.835 384.563C626.6 382.894 616.722 381.522 607.2 380.448C594.379 378.99 582.181 378.036 570.606 377.583C566.714 377.427 562.894 377.322 559.145 377.268C503.712 376.5 462.595 386.927 431.27 403.114C425.96 405.851 420.928 408.746 416.174 411.8C408.913 416.439 401.98 421.572 395.424 427.163C386.352 434.944 377.985 443.512 370.423 452.766L370.008 453.274C333.37 498.065 321.312 547.65 295.827 556.381C186.883 593.707 117.98 458.396 110.914 326.032C110.557 319.362 110.36 312.711 110.323 306.079C110.301 303.115 110.315 300.158 110.366 297.21C110.478 289.517 110.818 281.875 111.386 274.324C111.598 271.437 111.844 268.566 112.124 265.71C112.433 262.629 112.769 259.568 113.157 256.525C115.928 234.223 120.776 213.004 127.811 193.84Z" fill="#3578E5"/>
<path d="M465.483 266.665C456.783 270.714 456.639 288.848 459.368 294.723L464.312 305.358L495.826 290.724L490.882 280.089C488.149 274.216 474.19 262.631 465.483 266.665Z" fill="#3F3D56"/>
<path d="M380.795 419.357C380.24 419.357 379.694 419.223 379.202 418.967C378.71 418.711 378.288 418.34 377.97 417.886C377.652 417.432 377.448 416.907 377.377 416.358C377.305 415.808 377.366 415.25 377.557 414.729C377.711 414.304 377.948 413.913 378.254 413.58C378.561 413.247 378.93 412.978 379.341 412.788L542.092 337.214C542.503 337.023 542.947 336.915 543.399 336.896C543.851 336.877 544.302 336.947 544.727 337.102C545.152 337.257 545.542 337.495 545.875 337.801C546.209 338.107 546.478 338.475 546.669 338.885C547.053 339.714 547.092 340.66 546.779 341.518C546.465 342.375 545.824 343.074 544.996 343.459H544.996L382.245 419.034C381.791 419.246 381.296 419.356 380.795 419.357V419.357Z" fill="#3F3D56"/>
<path d="M508.103 297.507L461.581 319.109L534.558 476.093L581.079 454.49L508.103 297.507Z" fill="#E6E6E6"/>
<path d="M333.464 99.8911C324.763 103.94 324.62 122.073 327.348 127.949L332.292 138.584L363.807 123.95L358.863 113.315C356.129 107.442 342.17 95.8564 333.464 99.8911Z" fill="#3F3D56"/>
<path d="M528.407 499.278L514.092 505.925C511.94 506.988 509.499 507.316 507.142 506.862C505.064 506.371 503.66 505.101 503.291 503.376L499.96 487.827C499.331 484.893 501.761 481.423 505.739 479.576L513.645 475.905C517.623 474.058 521.844 474.439 523.681 476.811L533.423 489.384C534.504 490.778 534.569 492.67 533.605 494.574C532.433 496.667 530.607 498.319 528.407 499.278V499.278Z" fill="#3F3D56"/>
<path d="M484.393 521.103L470.078 527.75C467.926 528.812 465.485 529.141 463.129 528.687C461.05 528.195 459.646 526.925 459.277 525.201L455.946 509.651C455.317 506.718 457.748 503.248 461.725 501.401L469.631 497.729C473.609 495.882 477.83 496.264 479.668 498.636L489.41 511.209C490.49 512.603 490.556 514.494 489.591 516.399C488.419 518.492 486.593 520.144 484.393 521.103V521.103Z" fill="#3F3D56"/>
<path d="M388.496 157.436L341.975 179.038L489.489 496.362L536.01 474.759L388.496 157.436Z" fill="#E6E6E6"/>
<path d="M436.767 321.015L431.547 309.535L434.552 308.15L439.756 319.593L515.115 486.59L512.114 487.984" fill="#3F3D56"/>
<path d="M495.645 311.473L490.424 299.993L493.429 298.607L498.634 310.051L573.993 477.048L570.991 478.442" fill="#3F3D56"/>
<path d="M410.455 182.83L347.42 212.101C343.406 205.861 331.309 173.884 334.025 164.396L331.986 155.348L375.51 135.138L381.336 142.3C389.984 144.952 406.819 174.988 410.455 182.83Z" fill="#E6E6E6"/>
<path d="M377.329 135.525L332.414 156.381C330.757 157.151 328.991 156.868 328.471 155.749C328.396 155.588 328.35 155.415 328.334 155.238L326.009 130.453C325.91 129.392 326.818 128.189 328.206 127.545L357.993 113.713C359.38 113.069 360.886 113.15 361.633 113.911L379.086 131.671C379.979 132.579 379.494 134.134 378.004 135.143C377.789 135.288 377.564 135.416 377.329 135.525V135.525Z" fill="#E6E6E6"/>
<path d="M412.557 329.704C412.071 329.705 411.586 329.648 411.114 329.534C410.448 329.396 409.822 329.107 409.284 328.69C408.747 328.273 408.312 327.739 408.014 327.128L380.554 268.058C379.418 265.613 380.943 262.486 383.955 261.087L424.163 242.416C427.175 241.016 430.55 241.869 431.687 244.314L459.147 303.384C459.421 304.006 459.55 304.683 459.522 305.362C459.494 306.042 459.311 306.706 458.987 307.304C458.282 308.657 457.14 309.733 455.746 310.355L415.538 329.026C414.605 329.466 413.588 329.697 412.557 329.704Z" fill="#3F3D56"/>
<path d="M418.056 338.645L371.534 360.248L444.511 517.231L491.033 495.628L418.056 338.645Z" fill="#E6E6E6"/>
<path d="M360.742 138.114L347.099 144.449C344.466 145.672 340.914 143.635 339.182 139.909C337.45 136.183 338.183 132.156 340.816 130.934L354.459 124.599C357.091 123.376 360.643 125.413 362.375 129.139C364.107 132.865 363.374 136.892 360.742 138.114Z" fill="#3F3D56"/>
<path d="M376.344 307.382C367.644 311.431 367.501 329.564 370.229 335.44L375.173 346.075L406.687 331.441L401.743 320.806C399.01 314.933 385.051 303.348 376.344 307.382Z" fill="#3F3D56"/>
<path d="M231.818 271.186C228.746 273.232 225.601 268.362 228.733 266.407C231.805 264.36 234.95 269.231 231.818 271.186Z" fill="#E6E6E6"/>
<path d="M551.665 201.208C548.593 203.254 545.448 198.384 548.58 196.429C551.652 194.383 554.797 199.253 551.665 201.208Z" fill="#E6E6E6"/>
<path d="M333.66 256.872C330.587 258.918 327.443 254.048 330.574 252.093C333.647 250.047 336.792 254.917 333.66 256.872Z" fill="#E6E6E6"/>
<path d="M231.818 447.72C228.746 449.767 225.601 444.896 228.733 442.941C231.805 440.895 234.95 445.765 231.818 447.72Z" fill="#E6E6E6"/>
<path d="M388.559 49.3249C385.487 51.3711 382.342 46.501 385.473 44.5456C388.546 42.4995 391.691 47.3697 388.559 49.3249Z" fill="#E6E6E6"/>
<path d="M237.388 143.159C234.315 145.205 231.17 140.335 234.302 138.379C237.375 136.333 240.52 141.203 237.388 143.159Z" fill="#E6E6E6"/>
<path d="M454.819 116.258L452.864 115.83L453.292 113.875L451.989 113.59L451.56 115.544L449.605 115.116L449.319 116.419L451.274 116.848L450.846 118.801L452.149 119.087L452.578 117.132L454.533 117.561L454.819 116.258Z" fill="#E6E6E6"/>
<path d="M136.486 279.098L134.531 278.669L134.959 276.715L133.656 276.43L133.227 278.384L131.271 277.956L130.985 279.258L132.941 279.687L132.513 281.642L133.816 281.926L134.245 279.973L136.2 280.4L136.486 279.098Z" fill="#E6E6E6"/>
<path d="M537.398 362.163C535.771 362.916 533.912 362.994 532.228 362.379C530.544 361.763 529.173 360.506 528.415 358.881L520.37 341.573C519.616 339.948 519.54 338.09 520.156 336.408C520.772 334.726 522.031 333.358 523.657 332.603C525.282 331.848 527.141 331.769 528.824 332.383C530.508 332.997 531.879 334.254 532.636 335.877L540.682 353.185C541.436 354.811 541.513 356.67 540.898 358.353C540.282 360.036 539.024 361.406 537.398 362.163V362.163Z" fill="#3F3D56"/>
<path d="M400.548 425.779C398.921 426.532 397.062 426.61 395.378 425.995C393.694 425.379 392.323 424.122 391.565 422.497L383.519 405.189C382.766 403.564 382.69 401.706 383.306 400.024C383.922 398.342 385.181 396.974 386.807 396.219C388.432 395.464 390.291 395.385 391.974 395.999C393.658 396.613 395.029 397.87 395.786 399.493L403.832 416.801C404.586 418.427 404.663 420.286 404.048 421.969C403.432 423.652 402.173 425.022 400.548 425.779Z" fill="#3F3D56"/>
<path d="M525.004 324.348L471.055 349.399C467.62 344.058 457.266 316.69 459.591 308.57L460.732 299.487L492.944 283.692L500.082 289.66C510.139 286.261 524.922 311.168 525.004 324.348Z" fill="#E6E6E6"/>
<path d="M499.957 322.611L486.314 328.946C483.682 330.168 479.676 327.154 477.386 322.228C475.096 317.302 475.375 312.299 478.007 311.077L491.65 304.741C494.283 303.519 498.289 306.533 500.579 311.459C502.868 316.385 502.59 321.388 499.957 322.611Z" fill="#3F3D56"/>
<path d="M384.255 355.209L379.035 343.729L382.04 342.343L387.244 353.787L462.603 520.784L459.601 522.178" fill="#3F3D56"/>
<path d="M435.865 365.064L381.916 390.116C373.957 386.009 361.793 359.134 370.452 349.287L371.593 340.204L403.805 324.409L410.943 330.377C418.345 332.646 432.753 358.352 435.865 365.064Z" fill="#E6E6E6"/>
<path d="M409.708 360.939L396.065 367.274C393.432 368.497 389.675 366.019 387.692 361.751C385.708 357.484 386.236 353.016 388.868 351.793L402.511 345.458C405.144 344.236 408.901 346.714 410.884 350.981C412.868 355.249 412.34 359.717 409.708 360.939Z" fill="#3F3D56"/>
<path d="M136.286 244.798C181.547 244.798 218.237 208.128 218.237 162.893C218.237 117.658 181.547 80.9871 136.286 80.9871C91.0261 80.9871 54.3354 117.658 54.3354 162.893C54.3354 208.128 91.0261 244.798 136.286 244.798Z" fill="#FFE665"/>
<path opacity="0.3" d="M472.296 248.201L522.098 102.831L467.412 246.461C467.142 246.802 466.957 247.202 466.872 247.629C466.787 248.056 466.806 248.497 466.926 248.915C467.045 249.333 467.263 249.717 467.561 250.034C467.859 250.351 468.228 250.593 468.638 250.739C469.049 250.885 469.488 250.932 469.919 250.874C470.351 250.817 470.762 250.657 471.12 250.409C471.477 250.161 471.771 249.831 471.975 249.447C472.18 249.063 472.29 248.636 472.296 248.201H472.296Z" fill="#F0F0F0"/>
<path d="M599.244 161.551C589.494 164.79 578.687 167.971 566.82 171.094C505.44 187.246 423.167 199.844 335.157 206.57C247.147 213.296 163.914 213.345 100.791 206.709C70.0415 203.476 45.7206 198.826 28.5039 192.888C10.2763 186.601 0.698529 179.026 0.0363341 170.373C-1.25319 153.515 32.0311 138.677 60.1803 129.199L60.9427 131.459C22.2863 144.476 1.5015 158.231 2.41665 170.191C3.5817 185.424 39.5288 197.869 101.04 204.336C164.025 210.958 247.104 210.907 334.975 204.192C422.846 197.476 504.968 184.903 566.212 168.787C626.024 153.05 659.661 135.286 658.495 120.053C657.528 107.406 632.583 96.5863 588.258 89.5869L588.631 87.2307C620.838 92.3166 659.516 102.108 660.876 119.871C661.537 128.524 653.223 137.467 636.164 146.45C626.439 151.57 614.083 156.622 599.244 161.551Z" fill="#3F3D56"/>
<path d="M623.324 306.819C628.027 306.819 631.84 303.009 631.84 298.308C631.84 293.608 628.027 289.798 623.324 289.798C618.621 289.798 614.809 293.608 614.809 298.308C614.809 303.009 618.621 306.819 623.324 306.819Z" fill="#FF6584"/>
<path d="M677.428 537.427C682.131 537.427 685.943 533.617 685.943 528.917C685.943 524.216 682.131 520.406 677.428 520.406C672.725 520.406 668.913 524.216 668.913 528.917C668.913 533.617 672.725 537.427 677.428 537.427Z" fill="#F2F2F2"/>
<path d="M387.019 589.245C396.188 589.245 403.621 581.817 403.621 572.653C403.621 563.489 396.188 556.06 387.019 556.06C377.85 556.06 370.417 563.489 370.417 572.653C370.417 581.817 377.85 589.245 387.019 589.245Z" fill="#F2F2F2"/>
<path d="M260.513 369.64C265.215 369.64 269.028 365.83 269.028 361.129C269.028 356.429 265.215 352.619 260.513 352.619C255.81 352.619 251.997 356.429 251.997 361.129C251.997 365.83 255.81 369.64 260.513 369.64Z" fill="#3F3D56"/>
<path d="M546.784 380.717L583.524 390.222L606.057 434.457L567.962 435.95L546.784 380.717Z" fill="#E6E6E6"/>
<path d="M461.984 316.946L482.205 337.167L533.561 448.141L524.105 456.305L461.984 316.946Z" fill="#CCCCCC"/>
<path d="M418.018 335.276L419.604 363.82L468.078 476.082L480.471 474.487L418.018 335.276Z" fill="#CCCCCC"/>
<path d="M416.695 450.59L396.908 482.956L411.495 530.405L439.909 505.001L416.695 450.59Z" fill="#E6E6E6"/>
<path d="M591.482 470.478C581.209 470.478 569.949 470.09 557.702 469.314C494.358 465.294 412.309 451.316 326.667 429.958C241.027 408.599 162.026 382.41 104.218 356.215C76.0585 343.455 54.4461 331.376 39.982 320.314C24.6683 308.603 17.9698 298.395 20.072 289.975C24.1679 273.571 60.4356 269.982 90.1392 269.86L90.1493 272.246C49.3584 272.413 25.2938 278.915 22.3882 290.553C18.687 305.375 48.8724 328.516 105.204 354.043C162.884 380.179 241.74 406.318 327.246 427.644C412.751 448.968 494.649 462.921 557.854 466.933C619.578 470.852 657.104 464.597 660.805 449.774C663.878 437.467 643.621 419.338 603.766 398.724L604.863 396.605C633.822 411.584 667.437 433.066 663.121 450.352C661.019 458.772 650.307 464.638 631.284 467.785C620.44 469.579 607.12 470.478 591.482 470.478Z" fill="#3F3D56"/>
</g>
<defs>
<clipPath id="clip0">
<rect width="718" height="657" fill="white"/>
</clipPath>
</defs>
</svg>
